# xmcd CD database file
#
# Track frame offsets:
#	183
#	17580
#	36468
#	54188
#	72783
#	92905
#	113010
#	130010
#	150828
#	168868
#	185468
#	200780
#	218780
#	234208
#	254133
#
# Disc length: 3600 seconds
#
# Revision: 5
# Processed by: cddbd v1.5.2PL0 Copyright (c) Steve Scherf et al.
# Submitted via: CDex 1.70beta2
#
DISCID=c40e0e0f
DTITLE=Andreas Martin - Der Himmel kann warten
DYEAR=1900
DGENRE=
TTITLE0=Solo Tu (Du allein)
TTITLE1=Samstag Nacht in der Stadt
TTITLE2=Das erste mal im Leben
TTITLE3=Bittersüß
TTITLE4=Spuren, die der Wind verweht
TTITLE5=Der Himmel kann warten
TTITLE6=Amore Mio
TTITLE7=Ich bin allein
TTITLE8=Psst...Komm und lieb' mich heut' Nacht
TTITLE9=Abschied von den Sternen
TTITLE10=Wenn Du weinst
TTITLE11=Weit
TTITLE12=Cathy's Clown
TTITLE13=Du kommst heim
TTITLE14=Wo liegt das Ziel deiner Reise
EXTD=
EXTT0=
EXTT1=
EXTT2=
EXTT3=
EXTT4=
EXTT5=
EXTT6=
EXTT7=
EXTT8=
EXTT9=
EXTT10=
EXTT11=
EXTT12=
EXTT13=
EXTT14=
PLAYORDER=
